<svg width="40" height="41" viewBox="0 0 40 41" fill="none" xmlns="http://www.w3.org/2000/svg">
<g id="ic:baseline-people-alt">
<path id="Vector" fill-rule="evenodd" clip-rule="evenodd" d="M27.7832 22.3833C30.0665 23.9333 31.6665 26.0333 31.6665 28.8333V33.8333H38.3332V28.8333C38.3332 25.2 32.3832 23.05 27.7832 22.3833Z" fill="white"/>
<path id="Vector_2" d="M15.0007 20.4998C18.6825 20.4998 21.6673 17.5151 21.6673 13.8332C21.6673 10.1513 18.6825 7.1665 15.0007 7.1665C11.3188 7.1665 8.33398 10.1513 8.33398 13.8332C8.33398 17.5151 11.3188 20.4998 15.0007 20.4998Z" fill="white"/>
<path id="Vector_3" fill-rule="evenodd" clip-rule="evenodd" d="M24.9993 20.4998C28.6827 20.4998 31.666 17.5165 31.666 13.8332C31.666 10.1498 28.6827 7.1665 24.9993 7.1665C24.216 7.1665 23.4827 7.33317 22.7827 7.5665C24.2169 9.3402 24.9993 11.5522 24.9993 13.8332C24.9993 16.1142 24.2169 18.3261 22.7827 20.0998C23.4827 20.3332 24.216 20.4998 24.9993 20.4998ZM14.9993 22.1665C10.5493 22.1665 1.66602 24.3998 1.66602 28.8332V33.8332H28.3327V28.8332C28.3327 24.3998 19.4493 22.1665 14.9993 22.1665Z" fill="white"/>
</g>
</svg>
