<svg width="16" height="16" viewBox="0 0 16 16" fill="none" xmlns="http://www.w3.org/2000/svg">
<path d="M6.00004 7.99999C7.4728 7.99999 8.66671 6.80608 8.66671 5.33332C8.66671 3.86056 7.4728 2.66666 6.00004 2.66666C4.52728 2.66666 3.33337 3.86056 3.33337 5.33332C3.33337 6.80608 4.52728 7.99999 6.00004 7.99999Z" fill="#394E91"/>
<path d="M5.99996 9.33332C4.21996 9.33332 0.666626 10.2267 0.666626 12V12.6667C0.666626 13.0333 0.966626 13.3333 1.33329 13.3333H10.6666C11.0333 13.3333 11.3333 13.0333 11.3333 12.6667V12C11.3333 10.2267 7.77996 9.33332 5.99996 9.33332ZM13.3333 6.66666V4.66666H12V6.66666H9.99996V7.99999H12V9.99999H13.3333V7.99999H15.3333V6.66666H13.3333Z" fill="#394E91"/>
</svg>
