<svg width="40" height="41" viewBox="0 0 40 41" fill="none" xmlns="http://www.w3.org/2000/svg">
<g id="ic:round-stars">
<path id="Vector" d="M19.984 3.8335C10.784 3.8335 3.33398 11.3002 3.33398 20.5002C3.33398 29.7002 10.784 37.1668 19.984 37.1668C29.2007 37.1668 36.6673 29.7002 36.6673 20.5002C36.6673 11.3002 29.2007 3.8335 19.984 3.8335ZM25.3673 29.4835L20.0007 26.2502L14.634 29.4835C14.4936 29.5687 14.3312 29.6107 14.1671 29.6042C14.003 29.5977 13.8444 29.5431 13.7111 29.4472C13.5779 29.3512 13.4758 29.2181 13.4176 29.0646C13.3594 28.911 13.3477 28.7437 13.384 28.5835L14.8007 22.4835L10.084 18.4002C9.96146 18.291 9.87352 18.1485 9.83096 17.99C9.7884 17.8315 9.79308 17.6641 9.84444 17.5082C9.89579 17.3524 9.99158 17.215 10.12 17.1129C10.2484 17.0108 10.4039 16.9484 10.5673 16.9335L16.8007 16.4002L19.234 10.6502C19.5173 9.96683 20.484 9.96683 20.7673 10.6502L23.2007 16.3835L29.434 16.9168C29.598 16.9309 29.7543 16.9933 29.8829 17.0961C30.0115 17.1989 30.1068 17.3375 30.1568 17.4944C30.2067 17.6513 30.209 17.8195 30.1634 17.9778C30.1178 18.136 30.0264 18.2772 29.9007 18.3835L25.184 22.4668L26.6007 28.5835C26.7673 29.3002 26.0007 29.8668 25.3673 29.4835Z" fill="white"/>
</g>
</svg>
