<svg width="20" height="20" viewBox="0 0 20 20" fill="none" xmlns="http://www.w3.org/2000/svg">
<path d="M13.333 9.16675C14.7163 9.16675 15.8247 8.05008 15.8247 6.66675C15.8247 5.28341 14.7163 4.16675 13.333 4.16675C11.9497 4.16675 10.833 5.28341 10.833 6.66675C10.833 8.05008 11.9497 9.16675 13.333 9.16675ZM6.66634 9.16675C8.04967 9.16675 9.15801 8.05008 9.15801 6.66675C9.15801 5.28341 8.04967 4.16675 6.66634 4.16675C5.28301 4.16675 4.16634 5.28341 4.16634 6.66675C4.16634 8.05008 5.28301 9.16675 6.66634 9.16675ZM6.66634 10.8334C4.72467 10.8334 0.833008 11.8084 0.833008 13.7501V15.0001C0.833008 15.4584 1.20801 15.8334 1.66634 15.8334H11.6663C12.1247 15.8334 12.4997 15.4584 12.4997 15.0001V13.7501C12.4997 11.8084 8.60801 10.8334 6.66634 10.8334ZM13.333 10.8334C13.0913 10.8334 12.8163 10.8501 12.5247 10.8751C12.5413 10.8834 12.5497 10.9001 12.558 10.9084C13.508 11.6001 14.1663 12.5251 14.1663 13.7501V15.0001C14.1663 15.2917 14.108 15.5751 14.0163 15.8334H18.333C18.7913 15.8334 19.1663 15.4584 19.1663 15.0001V13.7501C19.1663 11.8084 15.2747 10.8334 13.333 10.8334Z" fill="#757575"/>
</svg>
