<svg width="20" height="20" viewBox="0 0 20 20" fill="none" xmlns="http://www.w3.org/2000/svg">
<path d="M9.99967 1.66675C6.49967 1.66675 3.33301 4.35008 3.33301 8.50008C3.33301 11.1501 5.37467 14.2667 9.44967 17.8584C9.76634 18.1334 10.2413 18.1334 10.558 17.8584C14.6247 14.2667 16.6663 11.1501 16.6663 8.50008C16.6663 4.35008 13.4997 1.66675 9.99967 1.66675ZM9.99967 10.0001C9.08301 10.0001 8.33301 9.25008 8.33301 8.33342C8.33301 7.41675 9.08301 6.66675 9.99967 6.66675C10.9163 6.66675 11.6663 7.41675 11.6663 8.33342C11.6663 9.25008 10.9163 10.0001 9.99967 10.0001Z" fill="#757575"/>
</svg>
