<svg width="64" height="65" viewBox="0 0 64 65" fill="none" xmlns="http://www.w3.org/2000/svg">
<path d="M31.974 5.8335C17.254 5.8335 5.33398 17.7802 5.33398 32.5002C5.33398 47.2202 17.254 59.1668 31.974 59.1668C46.7206 59.1668 58.6673 47.2202 58.6673 32.5002C58.6673 17.7802 46.7206 5.8335 31.974 5.8335ZM40.5873 46.8735L32.0006 41.7002L23.414 46.8735C23.1893 47.0098 22.9295 47.077 22.667 47.0666C22.4044 47.0563 22.1507 46.9689 21.9374 46.8154C21.7242 46.6618 21.5609 46.4489 21.4678 46.2032C21.3747 45.9575 21.356 45.6898 21.414 45.4335L23.6807 35.6735L16.134 29.1402C15.938 28.9655 15.7972 28.7374 15.7291 28.4839C15.661 28.2304 15.6685 27.9624 15.7507 27.7131C15.8329 27.4638 15.9861 27.2439 16.1916 27.0805C16.3971 26.9171 16.6459 26.8174 16.9073 26.7935L26.8806 25.9402L30.774 16.7402C31.2273 15.6468 32.774 15.6468 33.2273 16.7402L37.1206 25.9135L47.094 26.7668C47.3565 26.7894 47.6064 26.8892 47.8122 27.0537C48.0181 27.2182 48.1705 27.4399 48.2504 27.691C48.3303 27.9421 48.334 28.2112 48.2611 28.4643C48.1881 28.7175 48.0419 28.9434 47.8406 29.1135L40.294 35.6468L42.5606 45.4335C42.8273 46.5802 41.6006 47.4868 40.5873 46.8735Z" fill="#394E91"/>
</svg>
