<svg width="16" height="16" viewBox="0 0 16 16" fill="none" xmlns="http://www.w3.org/2000/svg">
<path d="M3.33333 3.33333H7.33333C7.7 3.33333 8 3.03333 8 2.66667C8 2.3 7.7 2 7.33333 2H3.33333C2.6 2 2 2.6 2 3.33333V12.6667C2 13.4 2.6 14 3.33333 14H7.33333C7.7 14 8 13.7 8 13.3333C8 12.9667 7.7 12.6667 7.33333 12.6667H3.33333V3.33333Z" fill="#394E91"/>
<path d="M13.7667 7.76669L11.9067 5.90669C11.8603 5.85906 11.8008 5.82635 11.7357 5.81274C11.6706 5.79913 11.603 5.80525 11.5414 5.8303C11.4799 5.85536 11.4272 5.89822 11.3901 5.9534C11.353 6.00857 11.3333 6.07355 11.3333 6.14003V7.33336H6.66667C6.3 7.33336 6 7.63336 6 8.00003C6 8.36669 6.3 8.66669 6.66667 8.66669H11.3333V9.86003C11.3333 10.16 11.6933 10.3067 11.9 10.0934L13.76 8.23336C13.8933 8.10669 13.8933 7.89336 13.7667 7.76669Z" fill="#394E91"/>
</svg>
