<svg width="40" height="40" viewBox="0 0 40 40" fill="none" xmlns="http://www.w3.org/2000/svg">
<path d="M20.0002 3.33331C10.8002 3.33331 3.3335 10.8 3.3335 20C3.3335 29.2 10.8002 36.6666 20.0002 36.6666C29.2002 36.6666 36.6668 29.2 36.6668 20C36.6668 10.8 29.2002 3.33331 20.0002 3.33331ZM20.0002 9.99998C23.2168 9.99998 25.8335 12.6166 25.8335 15.8333C25.8335 19.05 23.2168 21.6666 20.0002 21.6666C16.7835 21.6666 14.1668 19.05 14.1668 15.8333C14.1668 12.6166 16.7835 9.99998 20.0002 9.99998ZM20.0002 33.3333C16.6168 33.3333 12.6168 31.9666 9.76683 28.5333C12.6862 26.2428 16.2895 24.998 20.0002 24.998C23.7108 24.998 27.3142 26.2428 30.2335 28.5333C27.3835 31.9666 23.3835 33.3333 20.0002 33.3333Z" fill="#394E91"/>
</svg>
